<svg width="256" height="50" viewBox="0 0 256 50" fill="none" xmlns="http://www.w3.org/2000/svg">
<path d="M59.0859 48V16.0078H66.8984L71.625 29.4844C71.9896 30.5521 72.4583 32.0365 73.0312 33.9375C73.6042 35.8125 73.9948 37.0755 74.2031 37.7266H74.3594C75.7656 33.4297 76.6771 30.6823 77.0938 29.4844L81.7031 16.0078H89.5547V48H83.1094V35.6562C83.1094 33.625 83.3438 30.2917 83.8125 25.6562H83.6172L80.8828 34.0156L76.5859 46.5156H72.0547L67.7969 34.0156L65.0234 25.5781H64.7891C65.2578 29.4062 65.4922 32.7656 65.4922 35.6562V48H59.0859ZM91.0078 32.0234C91.0078 26.9974 92.2839 22.9609 94.8359 19.9141C97.4141 16.8411 100.799 15.3047 104.992 15.3047C109.185 15.3047 112.557 16.8411 115.109 19.9141C117.688 22.9609 118.977 26.9974 118.977 32.0234C118.977 37.0495 117.688 41.0859 115.109 44.1328C112.557 47.1797 109.185 48.7031 104.992 48.7031C100.773 48.7031 97.388 47.1797 94.8359 44.1328C92.2839 41.0859 91.0078 37.0495 91.0078 32.0234ZM97.7266 32.0234C97.7266 35.487 98.3646 38.2083 99.6406 40.1875C100.917 42.1667 102.701 43.1562 104.992 43.1562C107.284 43.1562 109.068 42.1667 110.344 40.1875C111.62 38.1823 112.258 35.4609 112.258 32.0234C112.258 28.612 111.62 25.9036 110.344 23.8984C109.068 21.8932 107.284 20.8906 104.992 20.8906C102.701 20.8906 100.917 21.8932 99.6406 23.8984C98.3646 25.9036 97.7266 28.612 97.7266 32.0234ZM116.562 16.0078H123.594L128.008 32.3359C128.711 35.2266 129.401 38.1432 130.078 41.0859L130.234 41.125C130.521 40.0312 130.885 38.4948 131.328 36.5156C131.797 34.5365 132.122 33.1432 132.305 32.3359L136.68 16.0078H143.75L133.672 48H126.602L116.562 16.0078ZM141.766 32.0234C141.766 26.9974 143.042 22.9609 145.594 19.9141C148.172 16.8411 151.557 15.3047 155.75 15.3047C159.943 15.3047 163.315 16.8411 165.867 19.9141C168.445 22.9609 169.734 26.9974 169.734 32.0234C169.734 37.0495 168.445 41.0859 165.867 44.1328C163.315 47.1797 159.943 48.7031 155.75 48.7031C151.531 48.7031 148.146 47.1797 145.594 44.1328C143.042 41.0859 141.766 37.0495 141.766 32.0234ZM148.484 32.0234C148.484 35.487 149.122 38.2083 150.398 40.1875C151.674 42.1667 153.458 43.1562 155.75 43.1562C158.042 43.1562 159.826 42.1667 161.102 40.1875C162.378 38.1823 163.016 35.4609 163.016 32.0234C163.016 28.612 162.378 25.9036 161.102 23.8984C159.826 21.8932 158.042 20.8906 155.75 20.8906C153.458 20.8906 151.674 21.8932 150.398 23.8984C149.122 25.9036 148.484 28.612 148.484 32.0234ZM168.844 40.6953L174.469 38.7812C175.146 40.0312 176.174 41.0729 177.555 41.9062C178.961 42.7396 180.419 43.1562 181.93 43.1562C183.414 43.1562 184.599 42.8047 185.484 42.1016C186.396 41.3724 186.852 40.4609 186.852 39.3672C186.852 38.1172 186.344 37.1276 185.328 36.3984C184.312 35.6432 182.815 34.9271 180.836 34.25C177.763 33.2344 175.706 32.4531 174.664 31.9062C171.565 30.2135 170.016 27.7135 170.016 24.4062C170.016 21.6979 171.096 19.5104 173.258 17.8438C175.419 16.151 178.193 15.3047 181.578 15.3047C184.495 15.3047 186.956 15.9948 188.961 17.375C190.992 18.7292 192.49 20.487 193.453 22.6484L187.984 24.4453C186.266 22.0755 184.117 20.8906 181.539 20.8906C180.055 20.8906 178.883 21.2161 178.023 21.8672C177.164 22.4922 176.734 23.3255 176.734 24.3672C176.734 24.8099 176.799 25.2135 176.93 25.5781C177.06 25.9427 177.307 26.2812 177.672 26.5938C178.062 26.9062 178.388 27.1667 178.648 27.375C178.935 27.5833 179.404 27.8177 180.055 28.0781C180.732 28.3385 181.227 28.5339 181.539 28.6641C181.878 28.7682 182.477 28.9505 183.336 29.2109C184.221 29.4714 184.807 29.6536 185.094 29.7578C186.266 30.1484 187.307 30.5781 188.219 31.0469C189.156 31.5156 190.055 32.1146 190.914 32.8438C191.773 33.5469 192.438 34.4323 192.906 35.5C193.375 36.5677 193.609 37.7656 193.609 39.0938C193.609 42.1406 192.477 44.5104 190.211 46.2031C187.971 47.8698 185.159 48.7031 181.773 48.7031C178.831 48.7031 176.201 47.987 173.883 46.5547C171.565 45.1224 169.885 43.1693 168.844 40.6953ZM194.672 48V16.0078H216.273V21.5938H201.156V28.7422H214.75V34.2109H201.156V42.4531H216.703V48H194.672ZM224.289 30.3438H229.875C233.208 30.3438 234.875 28.8333 234.875 25.8125C234.875 24.5104 234.432 23.4818 233.547 22.7266C232.661 21.9714 231.424 21.5938 229.836 21.5938H224.289V30.3438ZM217.805 48V16.0078H231.047C234.432 16.0078 237.036 16.8802 238.859 18.625C240.682 20.3698 241.594 22.5833 241.594 25.2656C241.594 27.4531 241.151 29.224 240.266 30.5781C239.38 31.9062 238.339 32.8438 237.141 33.3906C238.052 34.1198 238.69 34.8359 239.055 35.5391C239.445 36.2422 239.771 37.388 240.031 38.9766C240.604 41.8932 241.828 44.901 243.703 48H236.438C234.953 45.5781 233.885 42.7266 233.234 39.4453C232.974 38.1953 232.609 37.2839 232.141 36.7109C231.672 36.138 230.943 35.8516 229.953 35.8516H224.289V48H217.805Z" fill="url(#paint0_linear_3363_14090)"/>
<path d="M29.9078 21.8064L41.7195 29.3996L29.9078 36.9928V21.8064Z" stroke="url(#paint1_linear_3363_14090)" stroke-width="5" stroke-linecap="round" stroke-linejoin="round"/>
<path d="M18.341 43.0997C17.6061 43.3447 18.1408 43.8189 16.8598 43.4169C15.5789 43.0149 14.5101 42.1205 13.8886 40.9304L3.34338 20.7385C2.72188 19.5485 2.59857 18.1603 3.0006 16.8793C3.40262 15.5984 4.29704 14.5296 5.48708 13.9081L25.679 3.36288C26.869 2.74137 28.2572 2.61807 29.5382 3.02009C30.8191 3.42212 31.8879 4.31653 32.5094 5.50658L36.7117 13.4617" stroke="url(#paint2_linear_3363_14090)" stroke-width="5" stroke-linecap="round" stroke-linejoin="round"/>
<path d="M45.9378 13.7068H23.1582C20.3624 13.7068 18.096 15.9732 18.096 18.7689V41.5486C18.096 44.3444 20.3624 46.6108 23.1582 46.6108H45.9378C48.7336 46.6108 51 44.3444 51 41.5486V18.7689C51 15.9732 48.7336 13.7068 45.9378 13.7068Z" stroke="url(#paint3_linear_3363_14090)" stroke-width="5" stroke-linecap="round" stroke-linejoin="round"/>
<defs>
<linearGradient id="paint0_linear_3363_14090" x1="147.914" y1="24" x2="153.691" y2="60.5392" gradientUnits="userSpaceOnUse">
<stop stop-color="#6EA6DB"/>
<stop offset="1" stop-color="#5E31FF"/>
</linearGradient>
<linearGradient id="paint1_linear_3363_14090" x1="35.3361" y1="21.8064" x2="46.8183" y2="27.1726" gradientUnits="userSpaceOnUse">
<stop stop-color="#6EA6DB"/>
<stop offset="1" stop-color="#5E31FF"/>
</linearGradient>
<linearGradient id="paint2_linear_3363_14090" x1="14.421" y1="9.24233" x2="47.4997" y2="11.6799" gradientUnits="userSpaceOnUse">
<stop stop-color="#6EA6DB"/>
<stop offset="1" stop-color="#5E31FF"/>
</linearGradient>
<linearGradient id="paint3_linear_3363_14090" x1="33.2176" y1="13.7068" x2="61.8518" y2="30.9122" gradientUnits="userSpaceOnUse">
<stop stop-color="#6EA6DB"/>
<stop offset="1" stop-color="#5E31FF"/>
</linearGradient>
</defs>
</svg>
